<?xml version="1.0" encoding="UTF-8" standalone="no"?>
<!DOCTYPE svg PUBLIC "-//W3C//DTD SVG 1.1//EN"
 "http://www.w3.org/Graphics/SVG/1.1/DTD/svg11.dtd">
<!-- Generated by graphviz version 2.40.1 (20161225.0304)
 -->
<!-- Title: dependencies Pages: 1 -->
<svg width="1559pt" height="284pt"
 viewBox="0.00 0.00 1559.00 284.00" xmlns="http://www.w3.org/2000/svg" xmlns:xlink="http://www.w3.org/1999/xlink">
<g id="graph0" class="graph" transform="scale(1 1) rotate(0) translate(4 280)">
<title>dependencies</title>
<polygon fill="#ffffff" stroke="transparent" points="-4,4 -4,-280 1555,-280 1555,4 -4,4"/>
<text text-anchor="start" x="754.5091" y="-42.4" font-family="sans-serif" font-weight="bold" font-size="14.00" fill="#000000">Legend</text>
<polygon fill="#ffffb3" stroke="transparent" points="541.5,-10 541.5,-30 561.5,-30 561.5,-10 541.5,-10"/>
<text text-anchor="start" x="565.129" y="-15.4" font-family="sans-serif" font-size="14.00" fill="#000000"> &#160;Declarations</text>
<polygon fill="#8dd3c7" stroke="transparent" points="654.5,-10 654.5,-30 674.5,-30 674.5,-10 654.5,-10"/>
<text text-anchor="start" x="678.2251" y="-15.4" font-family="sans-serif" font-size="14.00" fill="#000000"> &#160;Module</text>
<polygon fill="#80b1d3" stroke="transparent" points="740.5,-10 740.5,-30 760.5,-30 760.5,-10 740.5,-10"/>
<text text-anchor="start" x="764.2812" y="-15.4" font-family="sans-serif" font-size="14.00" fill="#000000"> &#160;Bootstrap</text>
<polygon fill="#fdb462" stroke="transparent" points="837.5,-10 837.5,-30 857.5,-30 857.5,-10 837.5,-10"/>
<text text-anchor="start" x="861.1732" y="-15.4" font-family="sans-serif" font-size="14.00" fill="#000000"> &#160;Providers</text>
<polygon fill="#fb8072" stroke="transparent" points="933.5,-10 933.5,-30 953.5,-30 953.5,-10 933.5,-10"/>
<text text-anchor="start" x="957.2258" y="-15.4" font-family="sans-serif" font-size="14.00" fill="#000000"> &#160;Exports</text>
<g id="clust1" class="cluster">
<title>cluster_AppModule</title>
<polygon fill="none" stroke="#000000" stroke-dasharray="1,5" points="8,-70 8,-268 1543,-268 1543,-70 8,-70"/>
</g>
<g id="clust2" class="cluster">
<title>cluster_AppModule_declarations</title>
<polygon fill="none" stroke="#000000" points="1413,-78 1413,-130 1535,-130 1535,-78 1413,-78"/>
</g>
<g id="clust4" class="cluster">
<title>cluster_AppModule_imports</title>
<polygon fill="none" stroke="#000000" points="1261,-78 1261,-130 1405,-130 1405,-78 1261,-78"/>
</g>
<g id="clust6" class="cluster">
<title>cluster_AppModule_bootstrap</title>
<polygon fill="none" stroke="#000000" points="714,-208 714,-260 838,-260 838,-208 714,-208"/>
</g>
<g id="clust7" class="cluster">
<title>cluster_AppModule_providers</title>
<polygon fill="none" stroke="#000000" points="16,-78 16,-130 1253,-130 1253,-78 16,-78"/>
</g>
<!-- AppComponent -->
<g id="node1" class="node">
<title>AppComponent</title>
<polygon fill="#ffffb3" stroke="#000000" points="1526.9399,-122 1421.0601,-122 1421.0601,-86 1526.9399,-86 1526.9399,-122"/>
<text text-anchor="middle" x="1474" y="-99.8" font-family="Times,serif" font-size="14.00" fill="#000000">AppComponent</text>
</g>
<!-- AppModule -->
<g id="node2" class="node">
<title>AppModule</title>
<polygon fill="#8dd3c7" stroke="#000000" points="817.6571,-187 814.6571,-191 793.6571,-191 790.6571,-187 734.3429,-187 734.3429,-151 817.6571,-151 817.6571,-187"/>
<text text-anchor="middle" x="776" y="-164.8" font-family="Times,serif" font-size="14.00" fill="#000000">AppModule</text>
</g>
<!-- AppComponent&#45;&gt;AppModule -->
<g id="edge1" class="edge">
<title>AppComponent&#45;&gt;AppModule</title>
<path fill="none" stroke="#000000" d="M1474,-122.2921C1474,-144.2057 1474,-178 1474,-178 1474,-178 827.8316,-178 827.8316,-178"/>
<polygon fill="#000000" stroke="#000000" points="827.8316,-174.5001 817.8316,-178 827.8316,-181.5001 827.8316,-174.5001"/>
</g>
<!-- AppComponent  -->
<g id="node4" class="node">
<title>AppComponent </title>
<polygon fill="#80b1d3" stroke="#000000" points="830.439,-252 721.561,-252 721.561,-216 830.439,-216 830.439,-252"/>
<text text-anchor="middle" x="776" y="-229.8" font-family="Times,serif" font-size="14.00" fill="#000000">AppComponent </text>
</g>
<!-- AppModule&#45;&gt;AppComponent  -->
<g id="edge3" class="edge">
<title>AppModule&#45;&gt;AppComponent </title>
<path fill="none" stroke="#000000" stroke-dasharray="1,5" d="M776,-187.1061C776,-187.1061 776,-205.991 776,-205.991"/>
<polygon fill="#000000" stroke="#000000" points="772.5001,-205.9909 776,-215.991 779.5001,-205.991 772.5001,-205.9909"/>
</g>
<!-- AppRoutingModule -->
<g id="node3" class="node">
<title>AppRoutingModule</title>
<polygon fill="#8dd3c7" stroke="#000000" points="1397.2744,-122 1394.2744,-126 1373.2744,-126 1370.2744,-122 1268.7256,-122 1268.7256,-86 1397.2744,-86 1397.2744,-122"/>
<text text-anchor="middle" x="1333" y="-99.8" font-family="Times,serif" font-size="14.00" fill="#000000">AppRoutingModule</text>
</g>
<!-- AppRoutingModule&#45;&gt;AppModule -->
<g id="edge2" class="edge">
<title>AppRoutingModule&#45;&gt;AppModule</title>
<path fill="none" stroke="#000000" d="M1333,-122.1061C1333,-141.3391 1333,-169 1333,-169 1333,-169 827.8655,-169 827.8655,-169"/>
<polygon fill="#000000" stroke="#000000" points="827.8656,-165.5001 817.8655,-169 827.8655,-172.5001 827.8656,-165.5001"/>
</g>
<!-- OverLapGraphForWeatherPredictionService -->
<g id="node5" class="node">
<title>OverLapGraphForWeatherPredictionService</title>
<ellipse fill="#fdb462" stroke="#000000" cx="1061" cy="-104" rx="184.4892" ry="18"/>
<text text-anchor="middle" x="1061" y="-99.8" font-family="Times,serif" font-size="14.00" fill="#000000">OverLapGraphForWeatherPredictionService</text>
</g>
<!-- OverLapGraphForWeatherPredictionService&#45;&gt;AppModule -->
<g id="edge4" class="edge">
<title>OverLapGraphForWeatherPredictionService&#45;&gt;AppModule</title>
<path fill="none" stroke="#000000" d="M1061,-122.027C1061,-138.3976 1061,-160 1061,-160 1061,-160 827.7467,-160 827.7467,-160"/>
<polygon fill="#000000" stroke="#000000" points="827.7467,-156.5001 817.7467,-160 827.7466,-163.5001 827.7467,-156.5001"/>
</g>
<!-- RepositoryService -->
<g id="node6" class="node">
<title>RepositoryService</title>
<ellipse fill="#fdb462" stroke="#000000" cx="776" cy="-104" rx="82.2411" ry="18"/>
<text text-anchor="middle" x="776" y="-99.8" font-family="Times,serif" font-size="14.00" fill="#000000">RepositoryService</text>
</g>
<!-- RepositoryService&#45;&gt;AppModule -->
<g id="edge5" class="edge">
<title>RepositoryService&#45;&gt;AppModule</title>
<path fill="none" stroke="#000000" d="M776,-122.1061C776,-122.1061 776,-140.991 776,-140.991"/>
<polygon fill="#000000" stroke="#000000" points="772.5001,-140.9909 776,-150.991 779.5001,-140.991 772.5001,-140.9909"/>
</g>
<!-- TemperatureConverterService -->
<g id="node7" class="node">
<title>TemperatureConverterService</title>
<ellipse fill="#fdb462" stroke="#000000" cx="548" cy="-104" rx="127.8657" ry="18"/>
<text text-anchor="middle" x="548" y="-99.8" font-family="Times,serif" font-size="14.00" fill="#000000">TemperatureConverterService</text>
</g>
<!-- TemperatureConverterService&#45;&gt;AppModule -->
<g id="edge6" class="edge">
<title>TemperatureConverterService&#45;&gt;AppModule</title>
<path fill="none" stroke="#000000" d="M548,-122.027C548,-138.3976 548,-160 548,-160 548,-160 724.1813,-160 724.1813,-160"/>
<polygon fill="#000000" stroke="#000000" points="724.1813,-163.5001 734.1813,-160 724.1813,-156.5001 724.1813,-163.5001"/>
</g>
<!-- UIServiceServiceService -->
<g id="node8" class="node">
<title>UIServiceServiceService</title>
<ellipse fill="#fdb462" stroke="#000000" cx="294" cy="-104" rx="108.1777" ry="18"/>
<text text-anchor="middle" x="294" y="-99.8" font-family="Times,serif" font-size="14.00" fill="#000000">UIServiceServiceService</text>
</g>
<!-- UIServiceServiceService&#45;&gt;AppModule -->
<g id="edge7" class="edge">
<title>UIServiceServiceService&#45;&gt;AppModule</title>
<path fill="none" stroke="#000000" d="M294,-122.1061C294,-141.3391 294,-169 294,-169 294,-169 724.0688,-169 724.0688,-169"/>
<polygon fill="#000000" stroke="#000000" points="724.0689,-172.5001 734.0688,-169 724.0688,-165.5001 724.0689,-172.5001"/>
</g>
<!-- UIToastService -->
<g id="node9" class="node">
<title>UIToastService</title>
<ellipse fill="#fdb462" stroke="#000000" cx="96" cy="-104" rx="71.7641" ry="18"/>
<text text-anchor="middle" x="96" y="-99.8" font-family="Times,serif" font-size="14.00" fill="#000000">UIToastService</text>
</g>
<!-- UIToastService&#45;&gt;AppModule -->
<g id="edge8" class="edge">
<title>UIToastService&#45;&gt;AppModule</title>
<path fill="none" stroke="#000000" d="M96,-122.2921C96,-144.2057 96,-178 96,-178 96,-178 724.2317,-178 724.2317,-178"/>
<polygon fill="#000000" stroke="#000000" points="724.2317,-181.5001 734.2317,-178 724.2317,-174.5001 724.2317,-181.5001"/>
</g>
</g>
</svg>
