<?xml version="1.0" encoding="UTF-8" standalone="no"?>
<!DOCTYPE svg PUBLIC "-//W3C//DTD SVG 1.1//EN"
 "http://www.w3.org/Graphics/SVG/1.1/DTD/svg11.dtd">
<!-- Generated by graphviz version 2.40.1 (20161225.0304)
 -->
<!-- Title: dependencies Pages: 1 -->
<svg width="2303pt" height="284pt"
 viewBox="0.00 0.00 2303.00 284.00" xmlns="http://www.w3.org/2000/svg" xmlns:xlink="http://www.w3.org/1999/xlink">
<g id="graph0" class="graph" transform="scale(1 1) rotate(0) translate(4 280)">
<title>dependencies</title>
<polygon fill="#ffffff" stroke="transparent" points="-4,4 -4,-280 2299,-280 2299,4 -4,4"/>
<text text-anchor="start" x="1126.5091" y="-42.4" font-family="sans-serif" font-weight="bold" font-size="14.00" fill="#000000">Legend</text>
<polygon fill="#ffffb3" stroke="transparent" points="913.5,-10 913.5,-30 933.5,-30 933.5,-10 913.5,-10"/>
<text text-anchor="start" x="937.129" y="-15.4" font-family="sans-serif" font-size="14.00" fill="#000000"> &#160;Declarations</text>
<polygon fill="#8dd3c7" stroke="transparent" points="1026.5,-10 1026.5,-30 1046.5,-30 1046.5,-10 1026.5,-10"/>
<text text-anchor="start" x="1050.2251" y="-15.4" font-family="sans-serif" font-size="14.00" fill="#000000"> &#160;Module</text>
<polygon fill="#80b1d3" stroke="transparent" points="1112.5,-10 1112.5,-30 1132.5,-30 1132.5,-10 1112.5,-10"/>
<text text-anchor="start" x="1136.2812" y="-15.4" font-family="sans-serif" font-size="14.00" fill="#000000"> &#160;Bootstrap</text>
<polygon fill="#fdb462" stroke="transparent" points="1209.5,-10 1209.5,-30 1229.5,-30 1229.5,-10 1209.5,-10"/>
<text text-anchor="start" x="1233.1732" y="-15.4" font-family="sans-serif" font-size="14.00" fill="#000000"> &#160;Providers</text>
<polygon fill="#fb8072" stroke="transparent" points="1305.5,-10 1305.5,-30 1325.5,-30 1325.5,-10 1305.5,-10"/>
<text text-anchor="start" x="1329.2258" y="-15.4" font-family="sans-serif" font-size="14.00" fill="#000000"> &#160;Exports</text>
<g id="clust1" class="cluster">
<title>cluster_AppModule</title>
<polygon fill="none" stroke="#000000" stroke-dasharray="1,5" points="8,-70 8,-268 2287,-268 2287,-70 8,-70"/>
</g>
<g id="clust2" class="cluster">
<title>cluster_AppModule_declarations</title>
<polygon fill="none" stroke="#000000" points="2157,-78 2157,-130 2279,-130 2279,-78 2157,-78"/>
</g>
<g id="clust4" class="cluster">
<title>cluster_AppModule_imports</title>
<polygon fill="none" stroke="#000000" points="2005,-78 2005,-130 2149,-130 2149,-78 2005,-78"/>
</g>
<g id="clust6" class="cluster">
<title>cluster_AppModule_bootstrap</title>
<polygon fill="none" stroke="#000000" points="1158,-208 1158,-260 1282,-260 1282,-208 1158,-208"/>
</g>
<g id="clust7" class="cluster">
<title>cluster_AppModule_providers</title>
<polygon fill="none" stroke="#000000" points="16,-78 16,-130 1997,-130 1997,-78 16,-78"/>
</g>
<!-- AppComponent -->
<g id="node1" class="node">
<title>AppComponent</title>
<polygon fill="#ffffb3" stroke="#000000" points="2270.9399,-122 2165.0601,-122 2165.0601,-86 2270.9399,-86 2270.9399,-122"/>
<text text-anchor="middle" x="2218" y="-99.8" font-family="Times,serif" font-size="14.00" fill="#000000">AppComponent</text>
</g>
<!-- AppModule -->
<g id="node2" class="node">
<title>AppModule</title>
<polygon fill="#8dd3c7" stroke="#000000" points="1261.6571,-187 1258.6571,-191 1237.6571,-191 1234.6571,-187 1178.3429,-187 1178.3429,-151 1261.6571,-151 1261.6571,-187"/>
<text text-anchor="middle" x="1220" y="-164.8" font-family="Times,serif" font-size="14.00" fill="#000000">AppModule</text>
</g>
<!-- AppComponent&#45;&gt;AppModule -->
<g id="edge1" class="edge">
<title>AppComponent&#45;&gt;AppModule</title>
<path fill="none" stroke="#000000" d="M2218,-122.2479C2218,-145.0179 2218,-181 2218,-181 2218,-181 1271.9283,-181 1271.9283,-181"/>
<polygon fill="#000000" stroke="#000000" points="1271.9283,-177.5001 1261.9283,-181 1271.9282,-184.5001 1271.9283,-177.5001"/>
</g>
<!-- AppComponent  -->
<g id="node4" class="node">
<title>AppComponent </title>
<polygon fill="#80b1d3" stroke="#000000" points="1274.439,-252 1165.561,-252 1165.561,-216 1274.439,-216 1274.439,-252"/>
<text text-anchor="middle" x="1220" y="-229.8" font-family="Times,serif" font-size="14.00" fill="#000000">AppComponent </text>
</g>
<!-- AppModule&#45;&gt;AppComponent  -->
<g id="edge3" class="edge">
<title>AppModule&#45;&gt;AppComponent </title>
<path fill="none" stroke="#000000" stroke-dasharray="1,5" d="M1220,-187.1061C1220,-187.1061 1220,-205.991 1220,-205.991"/>
<polygon fill="#000000" stroke="#000000" points="1216.5001,-205.9909 1220,-215.991 1223.5001,-205.991 1216.5001,-205.9909"/>
</g>
<!-- AppRoutingModule -->
<g id="node3" class="node">
<title>AppRoutingModule</title>
<polygon fill="#8dd3c7" stroke="#000000" points="2141.2744,-122 2138.2744,-126 2117.2744,-126 2114.2744,-122 2012.7256,-122 2012.7256,-86 2141.2744,-86 2141.2744,-122"/>
<text text-anchor="middle" x="2077" y="-99.8" font-family="Times,serif" font-size="14.00" fill="#000000">AppRoutingModule</text>
</g>
<!-- AppRoutingModule&#45;&gt;AppModule -->
<g id="edge2" class="edge">
<title>AppRoutingModule&#45;&gt;AppModule</title>
<path fill="none" stroke="#000000" d="M2077,-122.2843C2077,-143.3211 2077,-175 2077,-175 2077,-175 1271.915,-175 1271.915,-175"/>
<polygon fill="#000000" stroke="#000000" points="1271.9151,-171.5001 1261.915,-175 1271.915,-178.5001 1271.9151,-171.5001"/>
</g>
<!-- BuisnessLogicService -->
<g id="node5" class="node">
<title>BuisnessLogicService</title>
<ellipse fill="#fdb462" stroke="#000000" cx="1892" cy="-104" rx="96.7061" ry="18"/>
<text text-anchor="middle" x="1892" y="-99.8" font-family="Times,serif" font-size="14.00" fill="#000000">BuisnessLogicService</text>
</g>
<!-- BuisnessLogicService&#45;&gt;AppModule -->
<g id="edge4" class="edge">
<title>BuisnessLogicService&#45;&gt;AppModule</title>
<path fill="none" stroke="#000000" d="M1892,-122.1061C1892,-141.3391 1892,-169 1892,-169 1892,-169 1271.7827,-169 1271.7827,-169"/>
<polygon fill="#000000" stroke="#000000" points="1271.7827,-165.5001 1261.7827,-169 1271.7827,-172.5001 1271.7827,-165.5001"/>
</g>
<!-- GetCityNameGeocoderService -->
<g id="node6" class="node">
<title>GetCityNameGeocoderService</title>
<ellipse fill="#fdb462" stroke="#000000" cx="1646" cy="-104" rx="131.3167" ry="18"/>
<text text-anchor="middle" x="1646" y="-99.8" font-family="Times,serif" font-size="14.00" fill="#000000">GetCityNameGeocoderService</text>
</g>
<!-- GetCityNameGeocoderService&#45;&gt;AppModule -->
<g id="edge5" class="edge">
<title>GetCityNameGeocoderService&#45;&gt;AppModule</title>
<path fill="none" stroke="#000000" d="M1646,-122.0225C1646,-139.3734 1646,-163 1646,-163 1646,-163 1272.0124,-163 1272.0124,-163"/>
<polygon fill="#000000" stroke="#000000" points="1272.0124,-159.5001 1262.0124,-163 1272.0123,-166.5001 1272.0124,-159.5001"/>
</g>
<!-- GetLocationLatLonService -->
<g id="node7" class="node">
<title>GetLocationLatLonService</title>
<ellipse fill="#fdb462" stroke="#000000" cx="1380" cy="-104" rx="116.8711" ry="18"/>
<text text-anchor="middle" x="1380" y="-99.8" font-family="Times,serif" font-size="14.00" fill="#000000">GetLocationLatLonService</text>
</g>
<!-- GetLocationLatLonService&#45;&gt;AppModule -->
<g id="edge6" class="edge">
<title>GetLocationLatLonService&#45;&gt;AppModule</title>
<path fill="none" stroke="#000000" d="M1268.892,-109.6719C1268.892,-123.3445 1268.892,-157 1268.892,-157 1268.892,-157 1268.1706,-157 1268.1706,-157"/>
<polygon fill="#000000" stroke="#000000" points="1271.6779,-153.5002 1261.6779,-157 1271.6778,-160.5002 1271.6779,-153.5002"/>
</g>
<!-- OverLapGraphForWeatherPredictionService -->
<g id="node8" class="node">
<title>OverLapGraphForWeatherPredictionService</title>
<ellipse fill="#fdb462" stroke="#000000" cx="1061" cy="-104" rx="184.4892" ry="18"/>
<text text-anchor="middle" x="1061" y="-99.8" font-family="Times,serif" font-size="14.00" fill="#000000">OverLapGraphForWeatherPredictionService</text>
</g>
<!-- OverLapGraphForWeatherPredictionService&#45;&gt;AppModule -->
<g id="edge7" class="edge">
<title>OverLapGraphForWeatherPredictionService&#45;&gt;AppModule</title>
<path fill="none" stroke="#000000" d="M1211.7081,-114.4434C1211.7081,-114.4434 1211.7081,-140.9681 1211.7081,-140.9681"/>
<polygon fill="#000000" stroke="#000000" points="1208.2082,-140.968 1211.7081,-150.9681 1215.2082,-140.9681 1208.2082,-140.968"/>
</g>
<!-- RepositoryService -->
<g id="node9" class="node">
<title>RepositoryService</title>
<ellipse fill="#fdb462" stroke="#000000" cx="776" cy="-104" rx="82.2411" ry="18"/>
<text text-anchor="middle" x="776" y="-99.8" font-family="Times,serif" font-size="14.00" fill="#000000">RepositoryService</text>
</g>
<!-- RepositoryService&#45;&gt;AppModule -->
<g id="edge8" class="edge">
<title>RepositoryService&#45;&gt;AppModule</title>
<path fill="none" stroke="#000000" d="M776,-122.0091C776,-138.0494 776,-159 776,-159 776,-159 1168.2296,-159 1168.2296,-159"/>
<polygon fill="#000000" stroke="#000000" points="1168.2296,-162.5001 1178.2296,-159 1168.2295,-155.5001 1168.2296,-162.5001"/>
</g>
<!-- TemperatureConverterService -->
<g id="node10" class="node">
<title>TemperatureConverterService</title>
<ellipse fill="#fdb462" stroke="#000000" cx="548" cy="-104" rx="127.8657" ry="18"/>
<text text-anchor="middle" x="548" y="-99.8" font-family="Times,serif" font-size="14.00" fill="#000000">TemperatureConverterService</text>
</g>
<!-- TemperatureConverterService&#45;&gt;AppModule -->
<g id="edge9" class="edge">
<title>TemperatureConverterService&#45;&gt;AppModule</title>
<path fill="none" stroke="#000000" d="M548,-122.2667C548,-140.5552 548,-166 548,-166 548,-166 1168.2173,-166 1168.2173,-166"/>
<polygon fill="#000000" stroke="#000000" points="1168.2173,-169.5001 1178.2173,-166 1168.2173,-162.5001 1168.2173,-169.5001"/>
</g>
<!-- UIServiceServiceService -->
<g id="node11" class="node">
<title>UIServiceServiceService</title>
<ellipse fill="#fdb462" stroke="#000000" cx="294" cy="-104" rx="108.1777" ry="18"/>
<text text-anchor="middle" x="294" y="-99.8" font-family="Times,serif" font-size="14.00" fill="#000000">UIServiceServiceService</text>
</g>
<!-- UIServiceServiceService&#45;&gt;AppModule -->
<g id="edge10" class="edge">
<title>UIServiceServiceService&#45;&gt;AppModule</title>
<path fill="none" stroke="#000000" d="M294,-122.1289C294,-142.5724 294,-173 294,-173 294,-173 1168.1096,-173 1168.1096,-173"/>
<polygon fill="#000000" stroke="#000000" points="1168.1096,-176.5001 1178.1096,-173 1168.1096,-169.5001 1168.1096,-176.5001"/>
</g>
<!-- UIToastService -->
<g id="node12" class="node">
<title>UIToastService</title>
<ellipse fill="#fdb462" stroke="#000000" cx="96" cy="-104" rx="71.7641" ry="18"/>
<text text-anchor="middle" x="96" y="-99.8" font-family="Times,serif" font-size="14.00" fill="#000000">UIToastService</text>
</g>
<!-- UIToastService&#45;&gt;AppModule -->
<g id="edge11" class="edge">
<title>UIToastService&#45;&gt;AppModule</title>
<path fill="none" stroke="#000000" d="M96,-122.0109C96,-144.4852 96,-180 96,-180 96,-180 1168.3269,-180 1168.3269,-180"/>
<polygon fill="#000000" stroke="#000000" points="1168.3269,-183.5001 1178.3269,-180 1168.3268,-176.5001 1168.3269,-183.5001"/>
</g>
</g>
</svg>
